# xmcd
#
# Track frame offsets:
# 150
# 16644
# 36931
# 56335
# 81020
# 101770
# 130389
# 148208
# 167577
# 183889
# 201491
# 234543
# 250927
# 269779
# 286343
#
# Disc length: 4194 seconds
#
#
# Revision: 1
# Processed by: cddbd v1.4PL0 Copyright (c) Steve Scherf et al.
# Submitted via: FreeRIP 2.00 
#
DISCID=d910600f
DTITLE=Sade - The Best of Sade
DYEAR=1994
DGENRE=
TTITLE0=Your Love Is King
TTITLE1=Hang on to Your Love
TTITLE2=Smooth Operator
TTITLE3=Jezebel
TTITLE4=The Sweetest Taboo
TTITLE5=Is It a Crime
TTITLE6=Never as Good as the First Time
TTITLE7=Love Is Stronger Than Pride
TTITLE8=Paradise
TTITLE9=Nothing Can Come Between Us
TTITLE10=No Ordinary Love
TTITLE11=Like a Tattoo
TTITLE12=Kiss of Life
TTITLE13=Please Send Me Someone to Love
TTITLE14=Cherish the Day
EXTD=
EXTT0=
EXTT1=
EXTT2=
EXTT3=
EXTT4=
EXTT5=
EXTT6=
EXTT7=
EXTT8=
EXTT9=
EXTT10=
EXTT11=
EXTT12=
EXTT13=
EXTT14=
PLAYORDER=
